<svg width="450" height="188" viewBox="0 0 450 188" fill="none" xmlns="http://www.w3.org/2000/svg">
<g clip-path="url(#clip0_1_3)">
<path d="M60.1929 120.386C27.0023 120.386 0 93.3918 0 60.1929C0 27.0023 27.0023 0 60.1929 0C93.3834 0 120.386 27.0023 120.386 60.1929C120.394 93.3918 93.3918 120.386 60.1929 120.386ZM60.1929 15.1946C35.3815 15.1946 15.1862 35.3815 15.1862 60.2013C15.1862 85.021 35.3732 105.2 60.1929 105.2C85.0126 105.2 105.2 85.0126 105.2 60.2013C105.2 35.3899 85.0126 15.1946 60.1929 15.1946Z" fill="black"/>
<path fill-rule="evenodd" clip-rule="evenodd" d="M358.615 3.72964H339.683L279.172 108.427L218.586 3.72964H199.662L226.907 50.9273L193.708 108.427L133.256 3.72964H114.206L179.4 116.656H207.957L236.406 67.3846L264.855 116.656H293.413L358.615 3.72964Z" fill="black"/>
<path fill-rule="evenodd" clip-rule="evenodd" d="M372.723 17.9793L380.951 3.72964L389.18 17.9793L437.95 102.407L446.187 116.656H429.863L418.407 96.812L418.306 96.8706L380.96 32.2205L343.646 96.8204L343.63 96.812L332.173 116.656H315.724L323.961 102.407L372.723 17.9793Z" fill="black"/>
<path d="M10.3443 183.079C7.36731 180.127 5.8788 176.464 5.8788 172.066C5.8788 167.675 7.36731 163.996 10.3443 161.052C13.3214 158.1 17.051 156.629 21.5249 156.629C26.0072 156.629 29.7285 158.1 32.7055 161.052C35.6826 164.004 37.1711 167.675 37.1711 172.066C37.1711 176.464 35.6826 180.135 32.7055 183.079C29.7285 186.031 25.9988 187.503 21.5249 187.503C17.051 187.503 13.3214 186.031 10.3443 183.079ZM13.8482 164.222C11.8747 166.22 10.8879 168.838 10.8879 172.066C10.8879 175.294 11.8747 177.903 13.8482 179.91C15.8217 181.917 18.3807 182.912 21.5249 182.912C24.6358 182.912 27.1947 181.908 29.1849 179.91C31.1752 177.911 32.1703 175.294 32.1703 172.066C32.1703 168.838 31.1752 166.229 29.1849 164.222C27.1947 162.215 24.6441 161.22 21.5249 161.22C18.3807 161.22 15.8217 162.223 13.8482 164.222Z" fill="black"/>
<path d="M41.7621 186.667V157.465H54.4897C57.8514 157.465 60.5776 158.401 62.6431 160.283C64.717 162.156 65.7539 164.489 65.7539 167.274C65.7539 170.059 64.717 172.384 62.6431 174.265C60.5692 176.147 57.8514 177.083 54.4897 177.083H46.5621V186.683H41.7621V186.667ZM46.5537 172.484H54.4813C56.5134 172.484 58.0605 172.016 59.1309 171.087C60.2013 170.159 60.7365 168.888 60.7365 167.274C60.7365 165.66 60.2013 164.389 59.1309 163.452C58.0605 162.524 56.5051 162.056 54.4813 162.056H46.5537V172.484Z" fill="black"/>
<path d="M69.9184 186.667V157.465H90.9918V162.056H74.7185V169.565H87.8642V174.156H74.7185V182.084H90.9918V186.675H69.9184V186.667Z" fill="black"/>
<path d="M95.3737 186.667V157.465H102.256L114.984 180.621H115.402L114.984 177.075V157.465H119.784V186.667H112.893L100.165 163.511H99.7473L100.165 167.057V186.667H95.3737V186.667Z" fill="black"/>
<path d="M135.421 157.465H140.431L145.523 182.494H146.15L151.076 157.465H158.376L163.511 182.494H164.138L169.022 157.465H173.822L167.776 186.667H160.057L155.048 162.675H154.421L149.621 186.667H141.693L135.421 157.465Z" fill="black"/>
<path d="M177.769 186.667V157.465H198.842V162.056H182.569V169.565H195.715V174.156H182.569V182.084H198.842V186.675H177.769V186.667Z" fill="black"/>
<path d="M203.216 186.667V157.465H217.608C220.359 157.465 222.541 158.184 224.155 159.614C225.769 161.044 226.572 162.834 226.572 164.974C226.572 167.115 225.836 168.754 224.364 169.9C223.754 170.377 223.026 170.744 222.199 171.029V171.238C223.227 171.464 224.13 171.832 224.908 172.367C226.714 173.671 227.617 175.662 227.617 178.329C227.617 180.805 226.731 182.811 224.95 184.359C223.169 185.906 220.652 186.675 217.399 186.675H203.216V186.667ZM208.016 169.356H217.407C218.745 169.356 219.773 169.022 220.493 168.353C221.212 167.684 221.58 166.756 221.58 165.56C221.58 164.506 221.22 163.653 220.493 163.018C219.765 162.382 218.737 162.056 217.407 162.056H208.016V169.356V169.356ZM208.016 182.076H217.198C220.81 182.076 222.625 180.687 222.625 177.903C222.625 175.118 220.819 173.73 217.198 173.73H208.016V182.076V182.076Z" fill="black"/>
<path d="M240.763 186.667L248.273 157.465H260.164L267.883 186.667H262.874L260.875 179.157H247.445L245.572 186.667H240.763V186.667ZM248.691 174.566H259.704L256.409 162.048H251.818L248.691 174.566Z" fill="black"/>
<path d="M273.853 183.121C270.851 180.202 269.346 176.515 269.346 172.066C269.346 167.617 270.851 163.929 273.853 161.011C276.856 158.092 280.568 156.629 284.992 156.629C290.051 156.629 294.007 158.41 296.842 161.972C298.096 163.503 299.008 165.267 299.593 167.274H294.793C294.291 166.162 293.597 165.158 292.711 164.272C290.679 162.24 288.103 161.228 284.992 161.228C281.848 161.228 279.289 162.231 277.315 164.23C275.342 166.229 274.355 168.846 274.355 172.074C274.355 175.302 275.342 177.911 277.315 179.918C279.289 181.925 281.848 182.92 284.992 182.92C288.187 182.92 290.821 181.808 292.878 179.584C293.798 178.639 294.509 177.526 295.002 176.247H299.802C299.083 178.413 298.063 180.294 296.758 181.883C293.865 185.638 289.943 187.511 284.992 187.511C280.568 187.503 276.856 186.039 273.853 183.121Z" fill="black"/>
<path d="M301.056 186.667L308.566 157.465H320.457L328.176 186.667H323.167L321.168 179.157H307.738L305.865 186.667H301.056V186.667ZM308.984 174.566H319.997L316.703 162.048H312.112L308.984 174.566Z" fill="black"/>
<path d="M331.722 186.667V157.465H341.522C346.055 157.465 349.793 158.87 352.745 161.68C355.697 164.489 357.168 167.951 357.168 172.066C357.168 176.18 355.697 179.642 352.745 182.452C349.793 185.262 346.055 186.667 341.522 186.667H331.722V186.667ZM336.522 182.076H341.531C344.725 182.076 347.301 181.147 349.249 179.283C351.198 177.418 352.168 175.018 352.168 172.066C352.168 169.114 351.189 166.714 349.249 164.849C347.301 162.984 344.734 162.056 341.531 162.056H336.522V182.076Z" fill="black"/>
<path d="M361.759 186.667V157.465H382.833V162.056H366.559V169.565H379.705V174.156H366.559V182.084H382.833V186.675H361.759V186.667Z" fill="black"/>
<path d="M387.206 186.667V157.465H395.134L403.062 175.611H404.107L412.034 157.465H419.753V186.667H414.953V166.22L415.371 162.257H414.953L407.234 179.985H399.725L392.006 162.257H391.588L392.006 166.22V186.667H387.206V186.667Z" fill="black"/>
<path d="M422.672 157.465H428.308L436.026 170.402H436.653L444.372 157.465H450.008L438.744 175.82V186.667H433.944V175.82L422.672 157.465Z" fill="black"/>
</g>
<defs>
<clipPath id="clip0_1_3">
<rect width="450" height="187.503" fill="white"/>
</clipPath>
</defs>
</svg>
